<svg width="90" height="14" viewBox="0 0 90 14" fill="none" xmlns="http://www.w3.org/2000/svg">
<rect x="32.7273" width="24.5455" height="13.0909" rx="6.54545" fill="#2B283A"/>
<circle cx="39.2727" cy="6.54545" r="5.72727" fill="white"/>
<path d="M3.27066 8.70818H5.57066V9.81818H1.87066V2.83818H3.27066V8.70818ZM7.17051 3.61818C6.92384 3.61818 6.71717 3.54151 6.55051 3.38818C6.39051 3.22818 6.31051 3.03151 6.31051 2.79818C6.31051 2.56484 6.39051 2.37151 6.55051 2.21818C6.71717 2.05818 6.92384 1.97818 7.17051 1.97818C7.41717 1.97818 7.62051 2.05818 7.78051 2.21818C7.94717 2.37151 8.03051 2.56484 8.03051 2.79818C8.03051 3.03151 7.94717 3.22818 7.78051 3.38818C7.62051 3.54151 7.41717 3.61818 7.17051 3.61818ZM7.86051 4.27818V9.81818H6.46051V4.27818H7.86051ZM11.4137 4.18818C11.827 4.18818 12.1904 4.27151 12.5037 4.43818C12.817 4.59818 13.0637 4.80818 13.2437 5.06818V4.27818H14.6537V9.85818C14.6537 10.3715 14.5504 10.8282 14.3437 11.2282C14.137 11.6348 13.827 11.9548 13.4137 12.1882C13.0004 12.4282 12.5004 12.5482 11.9137 12.5482C11.127 12.5482 10.4804 12.3648 9.97371 11.9982C9.47371 11.6315 9.19038 11.1315 9.12371 10.4982H10.5137C10.587 10.7515 10.7437 10.9515 10.9837 11.0982C11.2304 11.2515 11.527 11.3282 11.8737 11.3282C12.2804 11.3282 12.6104 11.2048 12.8637 10.9582C13.117 10.7182 13.2437 10.3515 13.2437 9.85818V8.99818C13.0637 9.25818 12.8137 9.47484 12.4937 9.64818C12.1804 9.82151 11.8204 9.90818 11.4137 9.90818C10.947 9.90818 10.5204 9.78818 10.1337 9.54818C9.74704 9.30818 9.44038 8.97151 9.21371 8.53818C8.99371 8.09818 8.88371 7.59484 8.88371 7.02818C8.88371 6.46818 8.99371 5.97151 9.21371 5.53818C9.44038 5.10484 9.74371 4.77151 10.1237 4.53818C10.5104 4.30484 10.9404 4.18818 11.4137 4.18818ZM13.2437 7.04818C13.2437 6.70818 13.177 6.41818 13.0437 6.17818C12.9104 5.93151 12.7304 5.74484 12.5037 5.61818C12.277 5.48484 12.0337 5.41818 11.7737 5.41818C11.5137 5.41818 11.2737 5.48151 11.0537 5.60818C10.8337 5.73484 10.6537 5.92151 10.5137 6.16818C10.3804 6.40818 10.3137 6.69484 10.3137 7.02818C10.3137 7.36151 10.3804 7.65484 10.5137 7.90818C10.6537 8.15484 10.8337 8.34484 11.0537 8.47818C11.2804 8.61151 11.5204 8.67818 11.7737 8.67818C12.0337 8.67818 12.277 8.61484 12.5037 8.48818C12.7304 8.35484 12.9104 8.16818 13.0437 7.92818C13.177 7.68151 13.2437 7.38818 13.2437 7.04818ZM19.1411 4.19818C19.5611 4.19818 19.9344 4.29151 20.2611 4.47818C20.5877 4.65818 20.8411 4.92818 21.0211 5.28818C21.2077 5.64151 21.3011 6.06818 21.3011 6.56818V9.81818H19.9011V6.75818C19.9011 6.31818 19.7911 5.98151 19.5711 5.74818C19.3511 5.50818 19.0511 5.38818 18.6711 5.38818C18.2844 5.38818 17.9777 5.50818 17.7511 5.74818C17.5311 5.98151 17.4211 6.31818 17.4211 6.75818V9.81818H16.0211V2.41818H17.4211V4.96818C17.6011 4.72818 17.8411 4.54151 18.1411 4.40818C18.4411 4.26818 18.7744 4.19818 19.1411 4.19818ZM24.2624 5.42818V8.10818C24.2624 8.29484 24.3057 8.43151 24.3924 8.51818C24.4857 8.59818 24.639 8.63818 24.8524 8.63818H25.5024V9.81818H24.6224C23.4424 9.81818 22.8524 9.24484 22.8524 8.09818V5.42818H22.1924V4.27818H22.8524V2.90818H24.2624V4.27818H25.5024V5.42818H24.2624Z" fill="#2B283A"/>
<path d="M67.7159 2.83818C68.4493 2.83818 69.0926 2.98151 69.6459 3.26818C70.2059 3.55484 70.6359 3.96484 70.9359 4.49818C71.2426 5.02484 71.3959 5.63818 71.3959 6.33818C71.3959 7.03818 71.2426 7.65151 70.9359 8.17818C70.6359 8.69818 70.2059 9.10151 69.6459 9.38818C69.0926 9.67484 68.4493 9.81818 67.7159 9.81818H65.2759V2.83818H67.7159ZM67.6659 8.62818C68.3993 8.62818 68.9659 8.42818 69.3659 8.02818C69.7659 7.62818 69.9659 7.06484 69.9659 6.33818C69.9659 5.61151 69.7659 5.04484 69.3659 4.63818C68.9659 4.22484 68.3993 4.01818 67.6659 4.01818H66.6759V8.62818H67.6659ZM72.0839 7.02818C72.0839 6.46818 72.1939 5.97151 72.4139 5.53818C72.6406 5.10484 72.9439 4.77151 73.3239 4.53818C73.7106 4.30484 74.1406 4.18818 74.6139 4.18818C75.0272 4.18818 75.3872 4.27151 75.6939 4.43818C76.0072 4.60484 76.2572 4.81484 76.4439 5.06818V4.27818H77.8539V9.81818H76.4439V9.00818C76.2639 9.26818 76.0139 9.48484 75.6939 9.65818C75.3806 9.82484 75.0172 9.90818 74.6039 9.90818C74.1372 9.90818 73.7106 9.78818 73.3239 9.54818C72.9439 9.30818 72.6406 8.97151 72.4139 8.53818C72.1939 8.09818 72.0839 7.59484 72.0839 7.02818ZM76.4439 7.04818C76.4439 6.70818 76.3772 6.41818 76.2439 6.17818C76.1106 5.93151 75.9306 5.74484 75.7039 5.61818C75.4772 5.48484 75.2339 5.41818 74.9739 5.41818C74.7139 5.41818 74.4739 5.48151 74.2539 5.60818C74.0339 5.73484 73.8539 5.92151 73.7139 6.16818C73.5806 6.40818 73.5139 6.69484 73.5139 7.02818C73.5139 7.36151 73.5806 7.65484 73.7139 7.90818C73.8539 8.15484 74.0339 8.34484 74.2539 8.47818C74.4806 8.61151 74.7206 8.67818 74.9739 8.67818C75.2339 8.67818 75.4772 8.61484 75.7039 8.48818C75.9306 8.35484 76.1106 8.16818 76.2439 7.92818C76.3772 7.68151 76.4439 7.38818 76.4439 7.04818ZM80.6213 5.13818C80.8013 4.84484 81.0346 4.61484 81.3213 4.44818C81.6146 4.28151 81.9479 4.19818 82.3213 4.19818V5.66818H81.9513C81.5113 5.66818 81.1779 5.77151 80.9513 5.97818C80.7313 6.18484 80.6213 6.54484 80.6213 7.05818V9.81818H79.2213V4.27818H80.6213V5.13818ZM86.5442 9.81818L84.6642 7.45818V9.81818H83.2642V2.41818H84.6642V6.62818L86.5242 4.27818H88.3442L85.9042 7.05818L88.3642 9.81818H86.5442Z" fill="#D5D4D8"/>
</svg>
